Coordinates
version=1
nRows=43
nColumns=12
inDegrees=yes

Units are S.I. units (second, meters, Newtons, ...)
Angles are in degrees

endheader
time	SC_y	SC_z	SC_x	AC_y	AC_z	AC_x	GH_y	GH_z	GH_yy	EL_x	PS_y
       0.0              -14.19          19.06           74.8          64.72         -18.99          4.001         -152.1          59.79          33.74          78.93          95.72
    0.0099              -14.19          19.06          74.79          64.72         -18.99          3.998         -152.1          59.79          33.75          78.92          95.73
    0.0198              -14.19          19.06          74.78          64.71         -18.99          3.995         -152.1          59.78          33.75          78.91          95.73
    0.0297              -14.19          19.05          74.78          64.71         -18.99          3.992         -152.1          59.78          33.75           78.9          95.74
    0.0396              -14.19          19.05          74.77           64.7         -18.99          3.988         -152.1          59.78          33.75          78.89          95.74
    0.0495               -14.2          19.05          74.76           64.7         -18.99          3.984         -152.1          59.77          33.75          78.88          95.75
    0.0594               -14.2          19.05          74.75          64.69         -18.99           3.98         -152.1          59.77          33.75          78.87          95.75
    0.0693               -14.2          19.05          74.74          64.68         -18.99          3.976         -152.1          59.77          33.75          78.85          95.76
    0.0792               -14.2          19.05          74.73          64.68         -18.99          3.971         -152.1          59.76          33.75          78.84          95.76
    0.0891              -14.21          19.05          74.72          64.67         -18.99          3.966         -152.1          59.76          33.75          78.82          95.77
     0.099              -14.21          19.05           74.7          64.66         -18.99          3.961         -152.1          59.76          33.75          78.81          95.78
    0.1089              -14.21          19.05          74.69          64.65         -18.99          3.955         -152.0          59.75          33.76          78.79          95.79
    0.1188              -14.22          19.05          74.68          64.65         -18.99          3.949         -152.0          59.75          33.76          78.77           95.8
    0.1287              -14.22          19.05          74.66          64.64         -18.99          3.942         -152.0          59.74          33.76          78.75          95.81
    0.1386              -14.23          19.05          74.64          64.63         -18.99          3.935         -152.0          59.74          33.76          78.72          95.82
    0.1485              -14.23          19.05          74.63          64.62         -18.98          3.927         -152.0          59.73          33.76           78.7          95.83
    0.1584              -14.24          19.05          74.61           64.6         -18.98          3.918         -152.0          59.72          33.76          78.67          95.84
    0.1683              -14.24          19.05          74.58          64.59         -18.98          3.909         -152.0          59.71          33.77          78.64          95.85
    0.1782              -14.25          19.04          74.56          64.58         -18.98          3.898         -152.0          59.71          33.77          78.61          95.87
    0.1881              -14.25          19.04          74.53          64.56         -18.98          3.887         -151.9           59.7          33.77          78.58          95.88
     0.198              -14.26          19.04          74.51          64.54         -18.98          3.875         -151.9          59.69          33.77          78.54           95.9
    0.2079              -14.27          19.04          74.47          64.52         -18.98          3.861         -151.9          59.68          33.78           78.5          95.92
    0.2178              -14.28          19.04          74.44           64.5         -18.98          3.847         -151.9          59.67          33.78          78.45          95.94
    0.2277              -14.29          19.04           74.4          64.48         -18.98           3.83         -151.8          59.65          33.79           78.4          95.96
    0.2376               -14.3          19.03          74.36          64.45         -18.98          3.812         -151.8          59.64          33.79          78.34          95.99
    0.2475              -14.31          19.03          74.31          64.43         -18.98          3.791         -151.8          59.62           33.8          78.28          96.02
    0.2574              -14.33          19.03          74.26          64.39         -18.98          3.768         -151.7           59.6           33.8          78.21          96.05
    0.2673              -14.34          19.03           74.2          64.36         -18.98          3.742         -151.7          59.58          33.81          78.13          96.08
    0.2772              -14.36          19.02          74.13          64.32         -18.98          3.713         -151.6          59.56          33.81          78.04          96.13
    0.2871              -14.38          19.02          74.05          64.27         -18.97           3.68         -151.6          59.53          33.82          77.93          96.17
     0.297               -14.4          19.01          73.96          64.22         -18.97          3.642         -151.5           59.5          33.83          77.81          96.22
    0.3069              -14.43          19.01          73.86          64.16         -18.97          3.598         -151.5          59.47          33.84          77.68          96.29
    0.3168              -14.46           19.0          73.74          64.09         -18.97          3.548         -151.4          59.43          33.85          77.52          96.36
    0.3267              -14.49           19.0          73.61           64.0         -18.97           3.49         -151.3          59.38          33.87          77.34          96.44
    0.3366              -14.53          18.99          73.45          63.91         -18.96          3.421         -151.2          59.33          33.88          77.13          96.53
    0.3465              -14.58          18.98          73.26           63.8         -18.96          3.341         -151.0          59.26           33.9          76.88          96.65
    0.3564              -14.64          18.97          73.04          63.66         -18.96          3.245         -150.9          59.19          33.93          76.58          96.78
    0.3663               -14.7          18.96          72.77           63.5         -18.95           3.13         -150.7           59.1          33.95          76.23          96.94
    0.3762              -14.79          18.94          72.45          63.31         -18.95          2.992         -150.5          58.99          33.99           75.8          97.13
    0.3861              -14.89          18.92          72.06          63.07         -18.94          2.822         -150.2          58.85          34.03          75.27          97.37
     0.396              -15.01           18.9          71.57          62.78         -18.93          2.613         -149.8          58.69          34.08          74.62          97.66
    0.4059              -15.17          18.87          70.96          62.41         -18.92          2.352         -149.4          58.48          34.14          73.81          98.03
    0.4158              -15.36          18.83           70.2          61.95         -18.91          2.023         -148.9          58.22          34.22          72.79          98.49
